<?xml version="1.0" encoding="UTF-8" standalone="no"?>
<svg
   xmlns:dc="http://purl.org/dc/elements/1.1/"
   xmlns:cc="http://creativecommons.org/ns#"
   xmlns:rdf="http://www.w3.org/1999/02/22-rdf-syntax-ns#"
   xmlns:svg="http://www.w3.org/2000/svg"
   xmlns="http://www.w3.org/2000/svg"
   xmlns:sodipodi="http://sodipodi.sourceforge.net/DTD/sodipodi-0.dtd"
   xmlns:inkscape="http://www.inkscape.org/namespaces/inkscape"
   width="500"
   height="500"
   viewBox="0 0 500 500"
   preserveAspectRatio="true"
   version="1.1"
   id="svg3749"
   sodipodi:docname="youtube.svg"
   inkscape:version="0.92.4 (5da689c313, 2019-01-14)">
  <metadata
     id="metadata3755">
    <rdf:RDF>
      <cc:Work
         rdf:about="">
        <dc:format>image/svg+xml</dc:format>
        <dc:type
           rdf:resource="http://purl.org/dc/dcmitype/StillImage" />
      </cc:Work>
    </rdf:RDF>
  </metadata>
  <defs
     id="defs3753" />
  <sodipodi:namedview
     pagecolor="#ffffff"
     bordercolor="#666666"
     borderopacity="1"
     objecttolerance="10"
     gridtolerance="10"
     guidetolerance="10"
     inkscape:pageopacity="0"
     inkscape:pageshadow="2"
     inkscape:window-width="2560"
     inkscape:window-height="1315"
     id="namedview3751"
     showgrid="false"
     inkscape:zoom="2.076"
     inkscape:cx="251.44509"
     inkscape:cy="211.46435"
     inkscape:window-x="-13"
     inkscape:window-y="-13"
     inkscape:window-maximized="1"
     inkscape:current-layer="svg3749" />
  <path
     inkscape:connector-curvature="0"
     id="path3735"
     d="m 449.5,258.367 c -2.415,-10.976 -7.766,-20.183 -16.04,-27.621 -8.28,-7.438 -17.812,-11.809 -28.608,-13.113 -34.22,-3.719 -85.837,-5.578 -154.853,-5.578 -69.012,0 -120.539,1.859 -154.582,5.578 -10.969,1.305 -20.548,5.676 -28.735,13.113 -8.187,7.441 -13.582,16.648 -16.187,27.621 -4.836,21.582 -7.254,54.133 -7.254,97.66 0,44.27 2.418,76.824 7.254,97.659 2.421,10.97 7.772,20.184 16.047,27.618 8.28,7.441 17.812,11.719 28.601,12.836 34.227,3.907 85.851,5.86 154.859,5.86 69.006,0 120.63,-1.953 154.85,-5.859 10.796,-1.117 20.274,-5.395 28.461,-12.836 8.194,-7.435 13.585,-16.648 16.188,-27.618 4.836,-21.581 7.257,-54.132 7.257,-97.659 -10e-4,-44.27 -2.422,-76.825 -7.258,-97.661 z M 161.275,286.555 H 131.42 V 445.313 H 103.518 V 286.555 H 74.221 v -26.228 h 87.054 z m 75.332,158.757 h -24.832 v -15.069 c -10.047,11.351 -19.535,17.022 -28.461,17.022 -8.555,0 -13.953,-3.444 -16.184,-10.324 -1.485,-4.465 -2.23,-11.257 -2.23,-20.371 V 307.477 h 24.829 v 101.562 c 0,5.95 0.094,9.207 0.281,9.766 0.562,3.906 2.512,5.859 5.859,5.859 5.023,0 10.328,-3.906 15.906,-11.719 V 307.477 h 24.832 z m 94.87,-41.296 c 0,13.578 -0.837,22.886 -2.509,27.909 -3.164,10.224 -9.766,15.341 -19.812,15.341 -8.923,0 -17.578,-5.117 -25.952,-15.341 v 13.391 H 258.375 V 260.327 h 24.829 v 60.547 c 8.007,-10.039 16.648,-15.062 25.952,-15.062 10.047,0 16.648,5.21 19.812,15.625 1.672,4.836 2.509,14.043 2.509,27.621 z m 94.304,-22.875 h -49.938 v 24.273 c 0,12.836 4.274,19.25 12.829,19.25 6.141,0 9.859,-3.344 11.164,-10.047 0.367,-1.859 0.555,-7.531 0.555,-17.016 h 25.391 v 3.625 c 0,9.117 -0.188,14.508 -0.555,16.188 -0.556,5.017 -2.509,10.039 -5.859,15.062 -6.696,9.859 -16.749,14.789 -30.141,14.789 -12.828,0 -22.875,-4.746 -30.133,-14.227 -5.391,-6.883 -8.086,-17.672 -8.086,-32.367 v -48.273 c 0,-14.695 2.602,-25.484 7.806,-32.367 7.257,-9.484 17.21,-14.227 29.858,-14.227 12.468,0 22.327,4.742 29.578,14.227 5.023,6.883 7.531,17.672 7.531,32.367 z"
     style="opacity:0.99999999;fill:#ff0000;fill-opacity:1" />
  <path
     inkscape:connector-curvature="0"
     id="path3737"
     d="m 295.758,328.406 c -4.28,0 -8.461,2.053 -12.555,6.14 v 83.981 c 4.094,4.09 8.274,6.137 12.555,6.137 7.251,0 10.883,-6.228 10.883,-18.695 v -58.867 c 0,-12.465 -3.632,-18.696 -10.883,-18.696 z"
     style="fill:#ff0000;fill-opacity:1" />
  <path
     inkscape:connector-curvature="0"
     id="path3739"
     d="m 388.397,328.406 c -8.374,0 -12.555,6.327 -12.555,18.969 v 12.836 h 25.109 v -12.836 c 10e-4,-12.648 -4.192,-18.969 -12.554,-18.969 z"
     style="fill:#ff0000;fill-opacity:1" />
  <path
     inkscape:connector-curvature="0"
     id="path3741"
     d="m 145.098,111.328 v 75.617 H 173 V 111.328 L 206.755,0 H 178.297 L 159.328,73.383 139.517,0 h -29.578 c 5.21,15.628 11.257,33.019 18.14,52.179 8.742,25.669 14.414,45.387 17.019,59.149 z" />
  <path
     inkscape:connector-curvature="0"
     id="path3743"
     d="m 244.143,188.898 c 12.834,0 22.693,-4.742 29.576,-14.23 5.203,-6.883 7.812,-17.859 7.812,-32.922 V 92.914 c 0,-14.879 -2.609,-25.762 -7.812,-32.645 -6.883,-9.488 -16.742,-14.23 -29.576,-14.23 -12.468,0 -22.234,4.742 -29.297,14.23 -5.208,6.883 -7.812,17.765 -7.812,32.645 v 48.832 c 0,14.879 2.602,25.855 7.812,32.922 7.066,9.488 16.828,14.23 29.297,14.23 z m -12,-101.007 c 0,-12.836 4,-19.254 12,-19.254 8,0 11.998,6.418 11.998,19.254 v 58.594 c 0,13.023 -3.998,19.531 -11.998,19.531 -8,0 -12,-6.512 -12,-19.531 z" />
  <path
     inkscape:connector-curvature="0"
     id="path3745"
     d="m 320.867,188.898 c 9.305,0 18.89,-5.766 28.742,-17.3 v 15.344 H 375 V 47.714 H 349.609 V 154.02 c -5.578,8 -10.876,11.996 -15.906,11.996 -3.351,0 -5.304,-2.047 -5.859,-6.137 -0.187,-0.375 -0.28,-3.632 -0.28,-9.769 V 47.714 h -25.391 v 109.934 c 0,9.485 0.749,16.458 2.233,20.926 2.422,6.883 7.906,10.324 16.461,10.324 z" />
</svg>
