<?xml version="1.0" encoding="UTF-8" standalone="no"?><!-- Generator: Gravit.io --><svg xmlns="http://www.w3.org/2000/svg" xmlns:xlink="http://www.w3.org/1999/xlink" style="isolation:isolate" viewBox="136.32 55.443 32.579 31.775" width="32.579pt" height="31.775pt"><path d=" M 152.608 55.443 C 143.614 55.443 136.32 62.736 136.32 71.733 C 136.32 78.93 140.987 85.035 147.46 87.189 C 148.275 87.339 148.572 86.836 148.572 86.404 C 148.572 86.017 148.558 84.993 148.55 83.634 C 144.019 84.618 143.063 81.45 143.063 81.45 C 142.322 79.568 141.254 79.067 141.254 79.067 C 139.775 78.057 141.366 78.077 141.366 78.077 C 143.001 78.192 143.861 79.756 143.861 79.756 C 145.314 82.245 147.674 81.526 148.602 81.109 C 148.75 80.057 149.171 79.339 149.636 78.932 C 146.019 78.521 142.216 77.123 142.216 70.881 C 142.216 69.103 142.851 67.648 143.893 66.51 C 143.725 66.098 143.166 64.441 144.053 62.199 C 144.053 62.199 145.42 61.761 148.532 63.869 C 149.831 63.507 151.225 63.327 152.61 63.32 C 153.994 63.327 155.387 63.507 156.688 63.869 C 159.798 61.761 161.163 62.199 161.163 62.199 C 162.052 64.441 161.493 66.098 161.326 66.51 C 162.37 67.648 163 69.103 163 70.881 C 163 77.139 159.191 78.516 155.563 78.919 C 156.147 79.422 156.668 80.416 156.668 81.935 C 156.668 84.113 156.648 85.87 156.648 86.404 C 156.648 86.84 156.942 87.347 157.768 87.188 C 164.236 85.029 168.899 78.928 168.899 71.733 C 168.899 62.736 161.605 55.443 152.608 55.443 Z " fill-rule="evenodd" fill="rgb(50,49,49)"/></svg>