<svg width="87" height="87" xmlns="http://www.w3.org/2000/svg" xmlns:svg="http://www.w3.org/2000/svg">
 <style>.st0{fill:#bcbbbb}.st1{fill:#f48023}</style>
 <g>
  <title>Layer 1</title>
  <g id="svg_3">
   <path fill="black" id="svg_1" d="m69.915738,79.200339l0,-23.2l7.7,0l0,30.9l-69.5,0l0,-30.9l7.7,0l0,23.2l54.1,0z" class="st0"/>
   <path fill="black" id="svg_2" d="m24.315738,53.800339l37.8,7.9l1.6,-7.6l-37.8,-7.9l-1.6,7.6zm5,-18l35,16.3l3.2,-7l-35,-16.4l-3.2,7.1zm9.7,-17.2l29.7,24.7l4.9,-5.9l-29.7,-24.7l-4.9,5.9zm19.2,-18.3l-6.2,4.6l23,31l6.2,-4.6l-23,-31zm-34.7,71.1l38.6,0l0,-7.7l-38.6,0l0,7.7z" class="st1"/>
  </g>
 </g>
</svg>