<svg xmlns="http://www.w3.org/2000/svg" width="57" height="67" style=""><rect id="backgroundrect" width="100%" height="100%" x="0" y="0" fill="none" stroke="none" class="" style=""/><style>.st0{fill:#bcbbbb}.st1{fill:#f48023}</style><g class="currentLayer" style=""><title>Layer 1</title><g class=""><path class="st0" d="M48.098409523232746,61.40719090588337 V43.35083048877999 h5.992843759124829 v24.04920417622821 H0.0000011707763221124878 V43.35083048877999 h5.992843759124829 v18.05636041710338 z" id="svg_1"/><path class="st1" d="M12.608321806857134,41.63858941474433 l29.41941481752189,6.1485020385826195 l1.2452662356623025,-5.915014619395935 l-29.41941481752189,-6.1485020385826195 l-1.2452662356623025,5.915014619395935 zm3.8914569864446946,-14.0092451512009 l27.240198905112862,12.686149775809707 l2.4905324713246046,-5.4480397810225725 l-27.240198905112862,-12.763978915538598 l-2.4905324713246046,5.525868920751465 zm7.549426553702707,-13.386612033369747 l23.115254499481487,19.22379751303679 l3.813627846715801,-4.59191924400474 l-23.115254499481487,-19.22379751303679 l-3.813627846715801,4.59191924400474 zm14.943194827947625,-14.242732570387584 l-4.825406663191422,3.5801404275291198 l17.900702137645595,24.127033315957107 l4.825406663191422,-3.5801404275291198 l-17.900702137645595,-24.127033315957107 zM11.985688689025977,55.33651800702965 h30.042047935353047 v-5.992843759124829 H11.985688689025977 V55.33651800702965 z" id="svg_2"/></g></g></svg>